<?xml version="1.0" encoding="utf-8" ?>
<svg baseProfile="tiny" height="100%" version="1.2" viewBox="0,0,554,553" width="100%" xmlns="http://www.w3.org/2000/svg" xmlns:ev="http://www.w3.org/2001/xml-events" xmlns:xlink="http://www.w3.org/1999/xlink"><defs /><polyline fill="none" points="377,506 376,506 375,506 374,506 373,506 372,506 371,506 370,506 369,506 368,506 368,505 367,505 366,505 365,505 364,505 363,505 362,505 361,505 361,504 360,504 359,504 358,504 357,504 356,504 355,504 354,504 353,504 353,503 352,503 351,503 350,503 349,503 349,502 348,502 347,502 346,502 345,502 345,501 344,501 343,501 342,501 341,501 340,501 339,501 339,500 338,500 337,500 336,500 335,500 334,500 333,500 332,500 332,499 331,499 330,499 329,499 328,499 327,499 327,498 326,498 325,498 325,497 324,497 323,497 322,497 321,497 320,497 319,497 318,497 318,496 317,496 316,496 315,496 315,495 314,495 313,495 312,495 311,495 310,495 309,495 308,495 307,495 307,494 306,494 305,494 304,494 303,494 303,493 302,493 301,493 301,492 300,492 299,492 298,492 298,491 297,491 296,491 295,491 294,491 293,491 293,490 292,490 291,490 290,490 289,490 288,490 288,489 287,489 286,489 285,489 284,489 284,488 283,488 282,488 281,488 281,487 280,487 279,487 278,487 277,487 277,486 276,486 275,486 274,486 274,485 273,485 272,485 271,485 270,485 269,485 268,485 267,485 267,484 266,484 265,484 264,484 263,484 263,483 262,483 262,482 261,482 260,482 259,482 259,481 258,481 257,481 256,481 255,481 255,480 254,480 253,480 252,480 251,480 251,479 250,479 249,479 248,479 248,478 247,478 246,478 246,477 245,477 244,477 244,476 243,476 242,476 241,476 240,476 239,476 238,476 238,475 237,475 236,475 235,475 235,474 234,474 233,474 232,474 232,473 231,473 230,473 230,472 229,472 228,472 227,472 227,471 226,471 225,471 224,471 224,470 223,470 222,470 221,470 220,470 220,469 219,469 218,469 218,468 217,468 216,468 216,467 215,467 214,467 214,466 213,466 212,466 211,466 211,465 210,465 209,465 208,465 208,464 207,464 206,464 206,463 205,463 205,462 204,462 203,462 203,461 202,461 201,461 200,461 200,460 199,460 198,460 197,460 197,459 196,459 195,459 195,458 194,458 194,457 193,457 192,457 192,456 191,456 190,456 190,455 189,455 188,455 187,455 187,454 186,454 186,453 185,453 185,452 184,452 183,452 183,451 182,451 181,451 181,450 180,450 179,450 179,449 178,449 177,449 177,448 176,448 176,447 175,447 175,446 174,446 173,446 173,445 172,445 171,445 171,444 170,444 170,443 169,443 169,442 168,442 167,442 167,441 166,441 166,440 165,440 164,440 164,439 163,439 162,439 162,438 162,437 161,437 161,436 160,436 159,436 159,435 158,435 157,435 157,434 156,434 156,433 155,433 155,432 154,432 153,432 153,431 153,430 152,430 152,429 151,429 151,428 150,428 150,427 149,427 149,426 148,426 148,425 147,425 147,424 146,424 146,423 145,423 145,422 144,422 144,421 143,421 143,420 142,420 142,419 141,419 141,418 140,418 140,417 139,417 139,416 138,416 138,415 137,415 137,414 137,413 136,413 136,412 136,411 135,411 135,410 134,410 133,410 133,409 133,408 132,408 132,407 132,406 131,406 131,405 131,404 130,404 130,403 130,402 129,402 129,401 128,401 128,400 128,399 127,399 127,398 127,397 126,397 126,396 126,395 126,394 125,394 125,393 124,393 124,392 124,391 123,391 123,390 123,389 123,388 122,388 122,387 122,386 122,385 122,384 121,384 121,383 121,382 121,381 121,380 121,379 121,378 120,378 120,377 120,376 120,375 120,374 119,374 119,373 119,372 118,372 118,371 118,370 118,369 118,368 118,367 118,366 118,365 118,364 117,364 117,363 117,362 117,361 117,360 117,359 117,358 117,357 117,356 118,355 118,355 118,354 118,353 118,352 118,351 118,350 118,349 118,348 118,347 118,346 119,345 119,345 119,344 119,343 120,342 120,342 120,341 120,340 121,339 121,339 121,338 121,337 121,336 121,335 121,334 122,333 122,333 122,332 122,331 122,330 123,329 123,329 123,328 124,327 124,327 125,326 125,326 125,325 126,324 126,324 126,323 126,322 126,321 127,320 127,320 127,319 127,318 128,317 128,317 128,316 129,315 130,315 130,315 130,314 131,313 131,313 132,312 132,312 132,311 132,310 133,309 133,309 133,308 134,307 135,307 135,307 136,306 136,306 136,305 137,304 137,304 138,303 138,303 139,302 139,302 140,301 140,301 141,300 141,300 141,299 142,298 142,298 143,297 143,297 144,296 144,296 145,295 146,295 146,295 146,294 147,293 147,293 147,292 147,291 147,290 147,289 147,288 147,287 146,287 146,286 145,286 145,285 144,285 143,285 143,284 142,284 142,283 141,283 141,282 141,281 140,281 139,281 139,280 138,280 138,279 137,279 137,278 136,278 136,277 136,276 135,276 135,275 134,275 133,275 133,274 132,274 132,273 132,272 132,271 132,270 131,270 131,269 131,268 130,268 130,267 130,266 129,266 129,265 128,265 128,264 128,263 127,263 127,262 127,261 127,260 127,259 126,259 126,258 126,257 126,256 126,255 126,254 125,254 125,253 125,252 125,251 124,251 124,250 124,249 123,249 123,248 123,247 123,246 123,245 123,244 123,243 123,242 123,241 123,240 123,239 123,238 123,237 123,236 123,235 123,234 124,233 124,233 124,232 125,231 125,231 125,230 125,229 126,228 126,228 126,227 126,226 126,225 126,224 127,223 127,223 127,222 127,221 127,220 128,219 128,219 128,218 129,217 129,217 130,216 130,216 131,215 131,215 131,214 131,213 132,212 132,212 133,211 133,211 133,210 134,209 134,209 135,208 135,208 136,207 136,207 137,206 137,206 137,205 138,204 138,204 139,203 139,203 140,202 140,202 141,201 141,201 142,200 142,200 142,199 143,198 143,198 144,197 145,197 146,197 146,197 147,196 148,196 148,196 149,195 149,195 150,194 150,194 151,193 152,193 152,193 153,192 154,192 154,192 155,191 156,191 156,191 157,190 157,190 158,189 158,189 159,188 160,188 161,188 162,188 163,188 164,188 165,188 165,188 166,187 167,187 168,187 169,187 170,187 170,187 171,186 172,186 173,186 174,186 175,186 176,186 177,186 178,186 178,186 179,185 180,185 180,186 181,186 182,186 183,186 184,186 185,186 186,186 187,186 188,186 189,186 190,186 191,186 192,186 192,187 193,187 194,187 195,187 196,187 197,187 197,188 198,188 199,188 200,188 200,189 201,189 201,190 202,190 203,190 203,191 204,191 205,191 206,191 206,192 207,192 208,192 208,193 209,193 210,193 210,194 211,194 211,195 212,195 212,196 213,196 214,196 214,197 215,197 215,198 216,198 217,198 217,199 217,200 218,200 219,200 219,201 219,202 220,202 220,203 221,203 221,204 222,204 222,205 223,205 223,206 224,206 224,207 225,207 225,208 226,208 226,209 226,210 227,210 227,211 228,211 228,212 229,212 229,213 229,214 230,214 230,215 230,216 230,217 231,217 231,218 231,219 231,220 232,220 232,221 232,222 233,222 233,223 234,223 234,224 234,225 234,226 235,226 235,227 235,228 235,229 235,230 235,231 235,232 235,233 236,233 236,234 236,235 236,236 236,237 236,238 236,239 236,240 236,241 236,242 236,243 236,244 236,245 236,246 236,247 236,248 236,249 236,249 235,250 235,251 235,252 235,253 235,254 235,255 235,256 235,257 235,257 234,258 234,259 234,260 234,260 233,261 233,261 232,262 232,263 232,263 231,264 231,265 231,266 231,267 231,268 231,269 231,270 232,270 232,271 233,271 234,271 235,271 235,272 236,272 237,272 238,272 239,272 240,272 240,273 241,273 242,273 243,273 243,274 244,274 244,274 245,273 246,273 246,273 247,272 248,272 248,272 249,271 249,271 250,270 250,270 251,269 251,269 251,268 251,267 251,266 252,265 252,265 252,264 252,263 252,262 253,261 253,261 253,260 253,259 254,258 254,258 255,257 255,257 255,256 256,255 256,255 256,254 256,253 257,252 257,252 257,251 257,250 257,249 258,248 258,248 259,247 259,247 260,246 260,246 261,245 261,245 261,244 261,243 262,242 262,242 262,241 262,240 263,239 263,239 263,238 264,237 264,237 265,236 265,236 266,235 266,235 266,234 267,233 267,233 267,232 268,231 268,231 269,230 269,230 270,229 270,229 271,228 271,228 271,227 272,226 272,226 272,225 273,224 273,224 274,223 274,223 275,222 276,222 276,222 277,221 277,221 277,220 278,219 278,219 278,218 278,217 279,216 279,216 280,215 280,215 281,214 281,214 281,213 280,213 280,212 279,212 279,211 278,211 277,211 277,210 276,210 275,210 275,209 274,209 273,209 273,208 272,208 272,207 271,207 271,206 270,206 269,206 269,205 268,205 267,205 267,204 266,204 266,203 265,203 265,202 264,202 264,201 263,201 263,200 262,200 261,200 261,199 260,199 260,198 259,198 259,197 258,197 258,196 257,196 257,195 256,195 255,195 255,194 254,194 253,194 253,193 253,192 252,192 252,191 252,190 251,190 251,189 250,189 249,189 249,188 248,188 248,187 248,186 247,186 247,185 246,185 246,184 246,183 245,183 245,182 244,182 244,181 243,181 243,180 243,179 242,179 242,178 242,177 242,176 241,176 241,175 241,174 240,174 240,173 239,173 239,172 238,172 238,171 238,170 237,170 237,169 237,168 237,167 237,166 236,166 236,165 236,164 235,164 235,163 235,162 234,162 234,161 234,160 233,160 233,159 233,158 232,158 232,157 232,156 232,155 232,154 231,154 231,153 231,152 231,151 231,150 231,149 231,148 231,147 231,146 231,145 231,144 230,144 230,143 230,142 230,141 230,140 230,139 230,138 229,138 229,137 229,136 229,135 229,134 229,133 229,132 229,131 229,130 229,129 229,128 229,127 230,126 230,126 230,125 230,124 230,123 230,122 230,121 230,120 230,119 230,118 231,117 231,117 231,116 231,115 231,114 231,113 231,112 232,111 232,111 232,110 232,109 232,108 232,107 233,106 233,106 233,105 233,104 234,103 234,103 235,102 235,102 235,101 235,100 236,99 236,99 236,98 236,97 237,96 237,96 237,95 237,94 238,93 238,93 238,92 239,91 239,91 240,90 240,90 241,89 241,89 241,88 242,87 242,87 242,86 243,85 243,85 243,84 244,83 244,83 245,82 245,82 246,81 246,81 246,80 247,79 247,79 247,78 248,77 248,77 249,76 249,76 250,75 250,75 251,74 251,74 252,73 252,73 253,72 253,72 254,71 254,71 255,70 255,70 256,69 256,69 257,68 257,68 258,67 258,67 259,66 259,66 260,65 261,65 261,65 261,64 262,63 262,63 263,62 264,62 264,62 265,61 266,61 266,61 267,60 267,60 268,59 268,59 269,58 270,58 270,58 271,57 272,57 273,57 273,57 274,56 274,56 275,55 275,55 276,54 276,54 277,53 278,53 278,53 279,52 280,52 281,52 282,52 282,52 283,51 284,51 285,51 286,51 286,51 287,50 288,50 288,50 289,49 289,49 290,48 291,48 292,48 292,48 293,47 294,47 295,47 296,47 297,47 298,47 299,47 299,47 300,46 301,46 302,46 303,46 304,46 305,46 306,46 307,46 307,46 308,45 309,45 310,45 311,45 312,45 313,45 314,45 315,45 316,45 317,45 318,45 319,45 320,45 321,45 322,45 323,45 324,45 325,45 326,45 326,46 327,46 328,46 329,46 330,46 331,46 332,46 333,46 334,46 335,46 335,47 336,47 337,47 338,47 339,47 340,47 340,48 341,48 342,48 343,48 344,48 344,49 345,49 345,50 346,50 347,50 347,51 348,51 349,51 350,51 350,52 351,52 352,52 353,52 354,52 355,52 355,53 356,53 356,54 357,54 357,55 358,55 359,55 359,56 360,56 360,57 361,57 362,57 363,57 363,58 364,58 365,58 365,59 365,60 366,60 367,60 367,61 368,61 369,61 369,62 370,62 370,63 371,63 372,63 372,64 372,65 373,65 373,66 374,66 375,66 375,67 376,67 376,68 377,68 377,69 377,70 378,70 379,70 379,71 380,71 380,72 380,73 381,73 381,74 382,74 382,75 383,75 384,75 384,76 385,76 385,77 385,78 386,78 386,79 387,79 387,80 387,81 388,81 388,82 389,82 389,83 390,83 390,84 390,85 390,86 391,86 391,87 391,88 392,88 392,89 393,89 393,90 394,90 394,91 394,92 395,92 395,93 396,93 396,94 396,95 396,96 396,97 397,97 397,98 397,99 397,100 398,100 398,101 399,101 399,102 399,103 399,104 400,104 400,105 400,106 400,107 400,108 401,108 401,109 401,110 401,111 401,112 401,113 401,114 402,114 402,115 402,116 402,117 403,117 403,118 404,118 404,119 404,120 404,121 404,122 404,123 404,124 404,125 404,126 404,127 404,128 404,129 404,130 404,131 404,132 404,133 404,134 404,135 404,136 404,137 404,138 404,139 404,140 404,141 404,142 404,143 404,143 403,144 403,145 403,146 403,146 402,147 402,148 402,149 402,150 402,151 402,152 402,153 402,153 401,154 401,155 401,156 401,156 400,157 400,158 400,159 400,160 400,160 399,161 399,162 399,162 398,163 398,164 398,164 397,165 397,166 397,166 396,167 396,168 396,169 396,169 395,170 395,171 395,172 395,172 394,173 394,174 394,174 393,175 393,175 392,176 392,176 391,177 391,178 391,178 390,179 390,180 390,180 389,181 389,182 389,182 388,182 387,183 387,184 387,184 386,185 386,185 385,186 385,186 384,187 384,188 384,188 383,189 383,189 382,190 382,190 381,191 381,191 380,192 380,192 379,193 379,194 379,195 379,195 378,196 378,197 378,197 377,198 377,199 378,199 378,200 379,200 379,201 380,201 381,201 381,202 382,202 383,202 384,202 384,203 385,203 386,203 386,204 387,204 387,205 388,205 388,206 389,206 390,206 390,207 391,207 392,207 393,207 394,207 394,208 395,208 395,209 395,210 396,210 396,211 397,211 397,212 398,212 399,212 399,213 400,213 400,214 401,214 401,215 402,215 402,216 403,216 404,216 404,217 405,217 405,218 405,219 406,219 406,220 407,220 407,221 408,221 408,222 409,222 409,223 410,223 410,224 411,224 411,225 411,226 412,226 412,227 413,227 414,227 414,228 414,229 415,229 415,230 415,231 415,232 416,232 416,233 417,233 417,234 417,235 418,235 418,236 419,236 419,237 420,237 420,238 420,239 420,240 421,240 421,241 421,242 421,243 422,243 422,244 422,245 423,245 423,246 424,246 424,247 424,248 425,248 425,249 425,250 425,251 425,252 426,252 426,253 426,254 426,255 426,256 427,256 427,257 427,258 428,258 428,259 428,260 429,260 429,261 429,262 429,263 430,263 430,264 430,265 430,266 430,267 430,268 431,268 431,269 431,270 431,271 431,272 431,273 431,274 431,275 431,276 432,276 432,277 432,278 432,279 433,279 433,280 433,281 433,282 433,283 433,284 433,285 433,286 434,286 434,287 434,288 434,289 434,290 434,291 434,292 434,293 434,294 434,295 434,296 434,297 434,298 434,299 434,300 434,301 434,302 434,303 434,304 434,305 434,306 435,306 435,307 435,308 435,309 435,310 435,311 435,312 435,313 435,313 434,314 434,315 434,316 434,317 434,318 434,319 434,320 434,321 434,322 434,323 434,324 434,325 434,326 434,327 434,328 434,329 434,330 434,330 433,331 433,332 433,333 433,334 433,334 432,335 432,336 432,337 432,338 432,339 432,340 432,341 432,341 431,342 431,343 431,344 431,345 431,346 431,347 431,348 431,349 431,350 431,350 430,351 430,352 430,353 430,354 430,355 430,356 430,356 429,357 429,358 429,359 429,360 429,361 429,361 428,362 428,363 428,364 428,364 427,365 427,366 427,367 427,368 427,368 426,369 426,370 426,371 426,372 426,373 426,374 426,374 425,375 425,376 425,377 425,378 425,379 425,379 424,380 424,381 424,382 424,383 424,383 423,384 423,385 423,385 422,386 422,387 422,388 422,388 421,389 421,390 421,391 421,392 421,393 421,394 421,394 420,395 420,396 420,397 420,398 420,398 419,399 419,400 419,401 419,402 419,403 419,404 419,404 418,405 418,405 417,406 417,407 417,408 417,408 416,409 416,410 416,411 416,412 416,412 415,413 415,414 415,415 415,416 415,417 415,417 414,418 414,419 414,420 414,421 414,421 413,422 413,422 412,423 412,424 412,424 411,425 411,426 411,427 411,428 411,429 411,429 410,430 410,431 410,432 410,433 410,434 410,435 410,435 409,436 409,437 409,437 408,438 408,439 408,439 407,440 407,441 407,442 407,442 406,443 406,444 406,445 406,446 406,446 405,447 405,448 405,449 405,450 405,450 404,451 404,452 404,453 404,453 403,454 403,454 402,455 402,456 402,457 402,457 401,458 401,459 401,460 401,460 400,461 400,462 400,463 400,464 400,464 399,465 399,466 399,466 398,467 398,467 397,468 397,469 397,470 397,470 396,471 396,472 396,473 396,474 396,474 395,475 395,476 395,477 395,478 395,479 395,479 394,480 394,481 394,482 394,482 393,483 393,483 392,484 392,484 391,485 391,486 391,487 391,487 390,488 390,489 390,490 390,491 390,491 389,492 389,493 389,494 389,494 388,495 388,495 387,496 387,496 386,497 386,498 386,499 386,499 385,500 385,501 385,501 384,502 384,502 383,503 383,503 382,504 382,504 381,505 381,505 380,505 379,505 378,505 377,506 377,506" stroke="orange" stroke-width="2" /><polyline fill="none" points="320,194 321,193 322,193 323,193 324,193 325,193 326,193 327,193 327,193 328,192 329,192 330,192 331,192 332,192 333,192 334,192 335,192 335,192 336,191 337,191 338,191 338,191 339,190 340,190 340,190 341,189 341,189 342,188 343,188 343,188 344,187 345,187 346,187 346,187 347,186 348,186 348,186 349,185 350,185 350,185 351,184 351,184 352,183 352,183 353,182 354,182 354,182 355,181 356,181 356,181 356,180 357,179 357,179 358,178 358,178 359,177 359,177 360,176 361,176 361,176 361,175 362,174 362,174 363,173 363,173 364,172 364,172 365,171 365,171 366,170 366,170 366,169 367,168 367,168 367,167 368,166 368,166 369,165 369,165 370,164 370,164 370,163 371,162 371,162 371,161 372,160 372,160 372,159 372,158 373,157 373,157 374,156 374,156 375,155 375,155 376,154 376,154 376,153 376,152 376,151 376,150 376,149 376,148 377,147 377,147 377,146 377,145 377,144 377,143 377,142 377,141 378,140 378,140 378,139 378,138 378,137 378,136 378,135 378,134 378,133 378,132 378,131 378,130 378,129 378,128 378,127 378,126 378,125 377,125 377,124 377,123 377,122 377,121 377,120 377,119 377,118 377,117 377,116 376,116 376,115 376,114 376,113 375,113 375,112 375,111 375,110 374,110 374,109 373,109 373,108 373,107 373,106 372,106 372,105 372,104 372,103 371,103 371,102 371,101 370,101 370,100 369,100 369,99 368,99 368,98 367,98 367,97 367,96 366,96 366,95 366,94 365,94 365,93 364,93 364,92 363,92 363,91 362,91 362,90 361,90 361,89 361,88 360,88 360,87 359,87 359,86 358,86 358,85 357,85 356,85 356,84 355,84 355,83 354,83 354,82 353,82 353,81 352,81 351,81 351,80 350,80 349,80 348,80 348,79 347,79 347,78 346,78 346,77 345,77 345,76 344,76 343,76 342,76 342,75 341,75 340,75 339,75 339,74 338,74 337,74 336,74 336,73 335,73 334,73 334,72 333,72 332,72 331,72 331,71 330,71 329,71 328,71 327,71 326,71 325,71 324,71 324,70 323,70 322,70 321,70 320,70 319,70 318,70 317,70 316,70 315,70 314,70 313,70 312,70 311,70 310,71 310,71 309,71 308,71 307,71 306,71 305,71 304,71 303,71 302,72 302,72 301,72 300,72 299,73 299,73 298,74 298,74 297,74 296,74 295,74 294,75 294,75 293,75 292,75 291,76 291,76 290,76 289,76 288,77 288,77 287,78 287,78 286,79 286,79 285,79 284,80 284,80 283,80 282,81 282,81 281,81 280,82 280,82 279,83 279,83 278,84 278,84 277,84 276,85 276,85 275,86 275,86 274,87 274,87 273,88 273,88 272,89 272,89 271,90 271,90 270,91 270,92 270,92 269,93 269,94 269,94 268,94 267,95 267,95 266,96 266,97 266,97 265,98 265,99 265,99 264,100 264,100 263,101 263,101 262,102 262,103 262,103 261,104 261,105 261,105 260,106 260,107 260,107 259,108 259,109 259,110 259,111 259,111 258,112 258,113 258,113 257,114 257,115 257,116 257,116 256,117 256,118 256,119 256,120 256,121 256,122 256,122 255,123 255,124 255,125 255,126 255,127 255,128 255,129 255,130 255,131 255,132 255,133 255,134 255,135 255,136 255,137 255,138 255,139 255,140 255,141 256,141 256,142 256,143 256,144 256,145 256,146 256,147 257,147 257,148 257,149 257,150 257,151 258,151 258,152 258,153 258,154 259,154 259,155 259,156 260,156 260,157 260,158 261,158 261,159 261,160 261,161 262,161 262,162 263,162 263,163 264,163 264,164 264,165 265,165 265,166 265,167 266,167 266,168 266,169 267,169 267,170 268,170 268,171 269,171 269,172 270,172 270,173 271,173 271,174 271,175 272,175 272,176 273,176 273,177 274,177 274,178 275,178 275,179 276,179 276,180 277,180 277,181 278,181 279,181 279,182 280,182 280,183 281,183 282,183 282,184 283,184 283,185 284,185 285,185 285,186 286,186 287,186 287,187 288,187 289,187 290,187 290,188 291,188 292,188 292,189 293,189 294,189 294,190 295,190 295,191 296,191 297,191 298,191 298,192 299,192 300,192 301,192 302,192 303,192 304,192 305,192 305,193 306,193 307,193 308,193 309,193 310,193 311,193 312,193 312,194 313,194 314,194 315,194 316,194 317,194 318,194 319,194 320,194 320,194" stroke="orange" stroke-width="2" /><polyline fill="none" points="189,272 190,271 191,271 191,271 192,270 193,270 193,270 194,269 194,269 195,268 196,268 196,268 197,267 198,267 198,267 199,266 200,266 200,266 201,265 201,265 202,264 202,264 202,263 203,262 203,262 204,261 204,261 205,260 205,260 206,259 206,259 206,258 207,257 207,257 207,256 208,255 208,255 208,254 209,253 209,253 209,252 210,251 210,251 210,250 211,249 211,249 211,248 211,247 211,246 211,245 212,244 212,244 212,243 211,243 211,242 211,241 211,240 211,239 211,238 211,237 211,236 211,235 211,234 211,233 210,233 210,232 210,231 209,231 209,230 208,230 208,229 208,228 208,227 207,227 207,226 207,225 206,225 206,224 205,224 205,223 204,223 204,222 203,222 203,221 202,221 202,220 202,219 201,219 201,218 200,218 200,217 199,217 199,216 198,216 197,216 197,215 196,215 195,215 195,214 194,214 193,214 192,214 192,213 191,213 191,212 190,212 189,212 189,211 188,211 187,211 186,211 185,211 184,211 183,211 182,211 181,211 180,211 179,211 178,211 177,211 176,211 175,211 174,211 173,211 172,211 171,212 171,212 170,212 169,213 169,213 168,214 168,214 167,214 166,215 166,215 165,215 164,216 164,216 163,216 162,217 162,217 161,218 161,218 160,219 160,219 159,220 159,220 158,220 157,221 157,221 156,222 156,222 155,223 155,224 155,225 155,225 154,226 154,226 153,227 153,227 152,228 152,229 152,229 151,230 151,231 151,232 151,232 150,233 150,234 150,235 150,236 150,237 150,237 149,238 149,239 149,240 149,241 149,242 149,243 149,244 150,244 150,245 150,246 150,247 150,248 150,249 150,250 150,251 151,251 151,252 151,253 152,253 152,254 152,255 152,256 153,256 153,257 154,257 154,258 154,259 155,259 155,260 155,261 156,261 156,262 157,262 157,263 158,263 159,263 159,264 159,265 160,265 160,266 161,266 162,266 162,267 163,267 164,267 164,268 165,268 166,268 166,269 167,269 167,270 168,270 168,271 169,271 170,271 171,271 172,271 172,272 173,272 174,272 175,272 176,272 177,272 178,272 179,272 180,272 181,272 182,272 183,272 184,272 185,272 186,272 187,272 188,272 189,272 189,272" stroke="orange" stroke-width="2" /><polyline fill="none" points="365,478 366,477 367,477 367,477 367,476 368,475 368,475 368,474 369,473 369,473 370,472 370,472 370,471 370,470 371,469 371,469 371,468 371,467 371,466 372,465 372,465 372,464 372,463 373,462 373,462 373,461 373,460 374,459 374,459 374,458 375,457 375,457 376,456 376,456 376,455 376,454 377,453 377,453 377,452 377,451 377,450 378,449 378,449 378,448 378,447 379,446 379,446 379,445 380,444 380,444 380,443 380,442 381,441 381,441 381,440 381,439 381,438 382,437 382,437 382,436 382,435 383,434 383,434 383,433 383,432 383,431 383,430 384,429 384,429 384,428 385,427 385,427 385,426 386,425 386,425 386,424 386,423 386,422 387,421 387,421 387,420 387,419 387,418 387,417 388,416 388,416 388,415 388,414 388,413 389,412 389,412 390,411 390,411 390,410 391,409 391,409 391,408 391,407 392,406 392,406 392,405 392,404 392,403 392,402 392,401 392,400 392,399 393,398 393,398 393,397 394,396 394,396 395,395 395,395 395,394 395,393 396,392 396,392 396,391 396,390 396,389 396,388 396,387 396,386 397,385 397,385 397,384 397,383 397,382 397,381 397,380 398,379 398,379 398,378 398,377 398,376 399,375 399,375 399,374 400,373 400,373 400,372 400,371 401,370 401,370 401,369 401,368 401,367 401,366 402,365 402,365 402,364 402,363 402,362 402,361 402,360 402,359 402,358 403,357 403,357 403,356 403,355 404,354 404,354 405,353 405,353 405,352 405,351 405,350 405,349 405,348 406,347 406,347 406,346 406,345 406,344 406,343 406,342 406,341 406,340 406,339 407,338 407,338 407,337 407,336 407,335 407,334 407,333 407,332 407,331 407,330 407,329 407,328 407,327 407,326 407,325 408,324 408,324 408,323 408,322 408,321 408,320 408,319 408,318 408,317 408,316 408,315 408,314 408,313 408,312 408,311 408,310 408,309 408,308 408,307 408,306 408,305 408,304 408,303 408,302 408,301 408,300 408,299 408,298 408,297 408,296 408,295 408,294 408,293 408,292 408,291 408,290 407,290 407,289 407,288 407,287 407,286 407,285 407,284 407,283 407,282 407,281 407,280 407,279 407,278 407,277 406,277 406,276 406,275 406,274 406,273 405,273 405,272 405,271 405,270 405,269 404,269 404,268 404,267 403,267 403,266 403,265 403,264 402,264 402,263 402,262 402,261 402,260 401,260 401,259 401,258 401,257 400,257 400,256 400,255 399,255 399,254 398,254 398,253 398,252 397,252 397,251 397,250 397,249 396,249 396,248 396,247 395,247 395,246 394,246 394,245 393,245 393,244 392,244 392,243 392,242 391,242 391,241 391,240 390,240 390,239 389,239 388,239 388,238 388,237 387,237 387,236 386,236 386,235 385,235 385,234 384,234 383,234 383,233 383,232 382,232 382,231 381,231 380,231 380,230 379,230 378,230 378,229 377,229 377,228 376,228 376,227 375,227 375,226 374,226 373,226 372,226 372,225 371,225 370,225 370,224 369,224 368,224 367,224 367,223 367,222 366,222 365,222 365,221 364,221 363,221 362,221 362,220 361,220 360,220 359,220 358,220 357,220 357,219 356,219 355,219 354,219 353,219 353,218 352,218 351,218 350,218 349,218 349,217 348,217 347,217 346,217 345,217 344,217 343,217 342,217 341,217 340,217 339,217 338,217 337,218 337,218 336,218 335,218 334,219 334,219 333,219 332,219 331,219 330,219 329,219 328,220 328,220 327,220 326,220 325,220 324,220 323,220 322,220 321,221 321,221 320,221 319,221 318,221 317,222 317,222 316,223 316,223 315,224 315,224 314,224 313,225 313,225 312,225 311,225 310,226 310,226 309,226 308,227 308,227 307,228 307,228 306,229 306,229 305,230 305,230 304,230 303,231 303,231 302,232 302,232 301,233 301,233 300,234 300,234 299,235 299,235 298,235 297,236 297,236 296,237 296,237 295,238 295,239 295,239 294,240 294,240 293,241 293,241 292,241 291,242 291,243 291,243 290,244 290,245 290,245 289,246 289,246 288,247 288,247 287,248 287,249 287,249 286,250 286,251 286,251 285,252 285,253 285,254 285,254 284,255 284,255 283,256 283,256 282,257 282,258 282,258 281,259 281,260 281,260 280,261 280,262 280,263 280,264 280,264 279,265 279,266 279,266 278,267 278,267 277,268 277,269 277,269 276,270 276,271 276,272 276,272 275,273 275,274 275,275 275,276 275,277 275,277 274,278 274,279 274,280 274,281 274,282 274,283 274,284 275,284 275,285 276,285 276,286 277,286 277,287 278,287 279,287 279,288 280,288 281,288 281,289 282,289 282,290 283,290 283,291 284,291 285,291 285,292 286,292 287,292 287,293 288,293 289,293 289,294 290,294 290,295 291,295 291,296 292,296 293,296 294,296 294,297 295,297 295,298 296,298 297,298 297,299 297,300 298,300 299,300 299,301 300,301 300,302 301,302 302,302 302,303 303,303 304,303 304,304 305,304 305,305 306,305 306,306 307,306 307,307 308,307 309,307 309,308 310,308 310,309 311,309 311,310 312,310 312,311 313,311 314,311 314,312 315,312 315,313 316,313 316,314 316,315 317,315 317,316 318,316 319,316 319,317 320,317 320,318 321,318 321,319 322,319 322,320 322,321 323,321 324,321 324,322 324,323 325,323 325,324 325,325 326,325 326,326 326,327 327,327 327,328 328,328 329,328 329,329 329,330 330,330 330,331 330,332 331,332 331,333 332,333 332,334 332,335 333,335 334,335 334,336 334,337 335,337 335,338 335,339 335,340 335,341 336,341 336,342 336,343 336,344 337,344 337,345 337,346 337,347 338,347 338,348 339,348 339,349 339,350 339,351 339,352 339,353 340,353 340,354 340,355 340,356 340,357 340,358 340,359 340,360 340,361 340,362 340,363 340,364 340,365 340,366 340,367 340,368 340,369 340,370 340,371 340,372 340,373 340,373 339,374 339,375 339,376 339,376 338,377 338,378 338,378 337,379 337,379 336,380 336,381 336,381 335,382 335,383 335,384 335,384 334,385 334,386 334,386 333,387 333,387 332,388 332,388 331,389 331,389 330,390 330,391 330,391 329,392 329,392 328,393 328,394 328,394 327,394 326,395 326,395 325,395 324,396 324,396 323,396 322,397 322,397 321,397 320,398 320,398 319,399 319,399 318,399 317,400 317,400 316,400 315,400 314,401 314,401 313,401 312,401 311,401 310,402 310,402 309,402 308,402 307,402 306,402 305,403 305,403 304,403 303,403 302,403 301,403 300,403 299,403 298,403 297,403 296,403 295,403 294,403 293,403 293,402 292,402 291,402 290,402 290,401 289,401 288,401 287,401 287,400 286,400 285,400 284,400 283,400 282,400 282,399 281,399 280,399 279,399 278,399 278,398 278,397 277,397 277,396 276,396 275,396 275,395 274,395 273,395 273,394 272,394 272,393 271,393 271,392 271,391 270,391 269,391 269,390 268,390 268,389 267,389 267,388 267,387 266,387 266,386 265,386 265,385 264,385 263,385 263,384 262,384 262,383 262,382 261,382 261,381 261,380 260,380 260,379 259,379 259,378 258,378 258,377 258,376 257,376 257,375 256,375 256,374 256,373 256,372 255,372 255,371 255,370 254,370 254,369 253,369 253,368 253,367 253,366 252,366 252,365 252,364 252,363 252,362 252,361 251,361 251,360 251,359 251,358 250,358 250,357 250,356 249,356 249,355 248,355 248,354 248,353 248,352 248,351 248,350 248,349 248,348 248,347 247,347 247,346 247,345 247,344 247,343 247,342 247,341 247,340 247,339 247,338 246,338 246,337 246,336 246,335 246,334 246,333 246,332 246,331 246,330 246,329 246,328 245,328 245,327 245,326 245,325 245,324 245,323 245,322 245,321 245,320 245,319 245,318 245,317 245,316 245,315 245,314 245,313 245,312 245,311 245,310 245,309 245,308 245,307 245,306 245,305 245,304 245,303 244,303 244,302 243,302 243,301 242,301 242,300 241,300 240,300 240,299 239,299 238,299 238,298 237,298 236,298 236,297 235,297 234,297 234,296 233,296 232,296 231,296 230,296 229,296 228,296 227,296 226,296 225,296 224,296 223,296 223,295 222,295 221,295 220,295 219,295 218,295 217,295 216,295 215,295 214,295 213,295 212,295 211,295 210,295 209,295 208,295 207,295 206,295 205,295 204,295 203,295 202,295 201,295 200,295 199,295 198,295 197,296 197,296 196,296 195,296 194,296 193,296 192,296 191,297 191,297 190,297 189,297 188,298 188,298 187,298 186,299 186,299 185,299 184,299 183,300 183,300 182,300 181,301 181,301 180,301 179,301 178,302 178,302 177,303 177,303 176,304 176,304 175,304 174,305 174,305 173,305 172,305 171,306 171,306 170,307 170,307 169,308 169,308 168,309 168,309 167,309 166,310 166,310 165,311 165,311 164,311 163,312 163,312 162,313 162,314 162,314 161,315 161,315 160,316 160,316 159,317 159,317 158,318 158,318 157,319 157,319 156,320 156,321 156,321 155,322 155,322 154,323 154,324 154,324 153,325 153,325 152,326 152,326 151,327 151,328 151,329 151,329 150,330 150,331 150,332 150,332 149,333 149,334 149,334 148,335 148,336 148,336 147,337 147,337 146,338 146,339 146,340 146,341 146,341 145,342 145,343 145,344 145,345 145,346 145,347 145,347 144,348 144,349 144,350 144,351 144,352 144,353 144,354 144,355 144,356 144,357 144,358 144,359 144,360 144,361 144,362 144,363 144,364 144,365 144,366 144,367 144,368 145,368 145,369 145,370 145,371 145,372 145,373 145,374 145,375 146,375 146,376 146,377 146,378 147,378 147,379 147,380 147,381 148,381 148,382 149,382 149,383 149,384 149,385 150,385 150,386 150,387 151,387 151,388 151,389 152,389 152,390 152,391 153,391 154,391 154,392 154,393 155,393 155,394 155,395 156,395 156,396 156,397 157,397 157,398 158,398 159,398 159,399 159,400 160,400 160,401 161,401 161,402 161,403 162,403 162,404 163,404 163,405 164,405 164,406 165,406 165,407 166,407 166,408 167,408 167,409 168,409 168,410 169,410 169,411 170,411 170,412 171,412 171,413 172,413 173,413 173,414 174,414 174,415 175,415 175,416 176,416 176,417 177,417 178,417 178,418 179,418 180,418 180,419 180,420 181,420 181,421 182,421 183,421 183,422 184,422 185,422 185,423 186,423 187,423 187,424 188,424 188,425 189,425 189,426 190,426 190,427 191,427 192,427 192,428 193,428 194,428 194,429 195,429 195,430 196,430 196,431 197,431 198,431 198,432 199,432 200,432 201,432 201,433 202,433 203,433 203,434 204,434 205,434 205,435 206,435 206,436 207,436 208,436 209,436 209,437 210,437 211,437 212,437 212,438 213,438 214,438 214,439 215,439 215,440 216,440 217,440 217,441 218,441 219,441 220,441 220,442 221,442 222,442 223,442 223,443 224,443 225,443 225,444 226,444 226,445 227,445 228,445 228,446 229,446 230,446 231,446 232,446 232,447 233,447 234,447 235,447 236,447 236,448 237,448 238,448 238,449 239,449 240,449 240,450 241,450 242,450 243,450 244,450 244,451 245,451 246,451 247,451 248,451 248,452 249,452 250,452 251,452 252,452 252,453 253,453 254,453 255,453 255,454 256,454 257,454 257,455 258,455 259,455 259,456 260,456 261,456 262,456 263,456 263,457 264,457 265,457 266,457 267,457 268,457 268,458 269,458 270,458 271,458 272,458 273,458 273,459 274,459 275,459 275,460 276,460 276,461 277,461 278,461 279,461 280,461 281,461 282,461 282,462 283,462 284,462 285,462 286,462 287,462 288,462 288,463 289,463 290,463 291,463 291,464 292,464 293,464 293,465 294,465 295,465 295,466 296,466 297,466 298,466 299,466 300,466 300,467 301,467 302,467 303,467 304,467 305,467 306,467 306,468 307,468 308,468 309,468 310,468 311,468 312,468 312,469 313,469 314,469 314,470 315,470 316,470 316,471 317,471 318,471 319,471 320,471 321,471 321,472 322,472 323,472 324,472 325,472 326,472 327,472 328,472 329,472 329,473 330,473 331,473 332,473 333,473 334,473 334,474 335,474 336,474 336,475 337,475 338,475 339,475 340,475 340,476 341,476 342,476 343,476 344,476 345,476 346,476 346,477 347,477 348,477 349,477 350,477 351,477 352,477 353,477 354,477 355,477 356,477 356,478 357,478 358,478 359,478 360,478 361,478 362,478 363,478 364,478 365,478 365,478" stroke="orange" stroke-width="2" /><polyline fill="none" points="306,377 307,376 308,376 308,376 309,375 310,375 310,375 311,374 311,374 311,373 312,372 312,372 313,371 313,371 313,370 314,369 314,369 314,368 314,367 315,366 315,366 315,365 315,364 315,363 315,362 315,361 315,360 315,359 315,358 315,357 314,357 314,356 314,355 313,355 313,354 313,353 313,352 312,352 312,351 312,350 312,349 312,348 311,348 311,347 310,347 310,346 309,346 309,345 308,345 308,344 308,343 307,343 307,342 307,341 306,341 306,340 305,340 305,339 304,339 304,338 303,338 303,337 302,337 302,336 302,335 301,335 301,334 300,334 300,333 299,333 299,332 298,332 298,331 297,331 297,330 296,330 296,329 295,329 294,329 294,328 293,328 293,327 292,327 292,326 291,326 291,325 290,325 289,325 288,325 288,324 287,324 287,323 286,323 286,322 286,321 285,321 284,321 284,320 283,320 282,320 282,319 281,319 281,318 280,318 280,317 279,317 279,316 278,316 277,316 276,316 275,316 275,315 274,315 273,316 273,316 272,317 272,317 271,318 271,319 271,320 271,321 271,322 271,323 271,324 271,325 271,326 271,327 271,328 271,329 271,330 271,331 271,332 271,333 271,334 271,335 271,336 271,337 272,337 272,338 272,339 272,340 272,341 272,342 273,342 273,343 273,344 274,344 274,345 274,346 274,347 274,348 274,349 274,350 275,350 275,351 275,352 275,353 275,354 275,355 276,355 276,356 276,357 277,357 277,358 278,358 278,359 279,359 279,360 279,361 279,362 280,362 280,363 280,364 280,365 281,365 281,366 282,366 282,367 282,368 283,368 284,368 284,369 284,370 285,370 285,371 286,371 286,372 287,372 287,373 288,373 289,373 289,374 289,375 290,375 291,375 291,376 292,376 293,376 293,377 294,377 295,377 296,377 297,377 298,377 299,377 300,377 301,377 302,377 303,377 304,377 305,377 306,377 306,377" stroke="orange" stroke-width="2" /></svg>